<svg width="36" height="37" viewBox="0 0 36 37" fill="none" xmlns="http://www.w3.org/2000/svg">
<circle cx="7.57915" cy="7.57915" r="7.57915" transform="matrix(1 0 0 -1 5.41016 15.1602)" fill="#DAEDFF" style="fill:#DAEDFF;fill:color(display-p3 0.8565 0.9306 1.0000);fill-opacity:1;"/>
<circle cx="7.03779" cy="7.03779" r="7.03779" transform="matrix(1 0 0 -1 15.6992 16.7812)" fill="#DAEDFF" style="fill:#DAEDFF;fill:color(display-p3 0.8565 0.9306 1.0000);fill-opacity:1;"/>
<rect y="7.57617" width="35.1889" height="12.4515" rx="6.22573" fill="#DAEDFF" style="fill:#DAEDFF;fill:color(display-p3 0.8565 0.9306 1.0000);fill-opacity:1;"/>
<path d="M10.6882 27.0017C11.3357 28.4043 12.9976 29.0164 14.4001 28.3689C15.8027 27.7214 16.4148 26.0595 15.7673 24.657C15.1198 23.2544 12.9442 22.479 11.5395 22.1724C10.9008 23.3915 10.0407 25.5992 10.6882 27.0017Z" fill="#DAEDFF" style="fill:#DAEDFF;fill:color(display-p3 0.8565 0.9306 1.0000);fill-opacity:1;"/>
<path d="M17.6882 34.0017C18.3357 35.4043 19.9976 36.0164 21.4001 35.3689C22.8027 34.7214 23.4148 33.0595 22.7673 31.657C22.1198 30.2544 19.9442 29.479 18.5395 29.1724C17.9008 30.3915 17.0407 32.5992 17.6882 34.0017Z" fill="#DAEDFF" style="fill:#DAEDFF;fill:color(display-p3 0.8565 0.9306 1.0000);fill-opacity:1;"/>
<path d="M21.6882 27.0017C22.3357 28.4043 23.9976 29.0164 25.4001 28.3689C26.8027 27.7214 27.4148 26.0595 26.7673 24.657C26.1198 23.2544 23.9442 22.479 22.5395 22.1724C21.9008 23.3915 21.0407 25.5992 21.6882 27.0017Z" fill="#DAEDFF" style="fill:#DAEDFF;fill:color(display-p3 0.8565 0.9306 1.0000);fill-opacity:1;"/>
</svg>
