<svg width="29" height="31" viewBox="0 0 29 31" fill="none" xmlns="http://www.w3.org/2000/svg">
<ellipse cx="14.1602" cy="26.6822" rx="14.1602" ry="3.86186" fill="#75ACC5" style="fill:#75ACC5;fill:color(display-p3 0.4571 0.6764 0.7715);fill-opacity:1;"/>
<ellipse cx="14.5426" cy="26.3675" rx="11.5856" ry="2.57457" fill="#82C0DD" style="fill:#82C0DD;fill:color(display-p3 0.5086 0.7544 0.8662);fill-opacity:1;"/>
<path d="M14.0304 0C20.9236 0.000164599 25.2319 7.46291 21.7853 13.4326L14.8058 25.5215C14.4612 26.118 13.5999 26.1179 13.2551 25.5215L6.27557 13.4326C2.82892 7.46284 7.13715 -6.02631e-07 14.0304 0ZM14.0324 4.6709C11.374 4.6709 9.21893 6.82599 9.21893 9.48438C9.21908 12.1426 11.3741 14.2979 14.0324 14.2979C16.6906 14.2977 18.8457 12.1426 18.8459 9.48438C18.8459 6.82607 16.6907 4.67102 14.0324 4.6709Z" fill="#75ACC5" style="fill:#75ACC5;fill:color(display-p3 0.4571 0.6764 0.7715);fill-opacity:1;"/>
</svg>
