<svg width="14" height="14" viewBox="0 0 14 14" fill="none" xmlns="http://www.w3.org/2000/svg">
<path d="M0 13.25C0 13.4489 0.0790177 13.6397 0.21967 13.7803C0.360322 13.921 0.551088 14 0.75 14H13.25C13.4489 14 13.6397 13.921 13.7803 13.7803C13.921 13.6397 14 13.4489 14 13.25V5H0V13.25ZM14 1.74281C13.9999 1.64469 13.9803 1.54757 13.9425 1.45703C13.9047 1.36649 13.8493 1.28433 13.7796 1.21529C13.7099 1.14624 13.6272 1.09167 13.5363 1.05472C13.4454 1.01777 13.3481 0.999175 13.25 1H11.5025V0H10.0025V1H3.9975V0H2.4975V1H0.75C0.651884 0.999175 0.554574 1.01777 0.463676 1.05472C0.372779 1.09167 0.290091 1.14624 0.220377 1.21529C0.150662 1.28433 0.0952992 1.36649 0.0574768 1.45703C0.0196543 1.54757 0.000120215 1.64469 0 1.74281V3.5H14V1.74281Z" fill="#2E4D7F" style="fill:#2E4D7F;fill:color(display-p3 0.1799 0.3019 0.4986);fill-opacity:1;"/>
</svg>
