<svg width="36" height="36" viewBox="0 0 36 36" fill="none" xmlns="http://www.w3.org/2000/svg">
<circle cx="18" cy="18" r="17.65" fill="#88B0DA" fill-opacity="0.66" stroke="#CCCCCC" style="fill:#88B0DA;fill:color(display-p3 0.5317 0.6897 0.8551);fill-opacity:0.66;stroke:#CCCCCC;stroke:color(display-p3 0.7987 0.7987 0.7987);stroke-opacity:1;" stroke-width="0.7"/>
<path d="M9.60075 19.3571C9.60075 23.5593 13.0073 26.9659 17.2096 26.9659C21.4118 26.9659 24.8184 23.5593 24.8184 19.3571C24.8184 15.1548 20.3292 10.7591 17.2096 8.40039C14.2421 10.683 9.60075 15.1548 9.60075 19.3571Z" fill="#D4E5F6" style="fill:#D4E5F6;fill:color(display-p3 0.8314 0.8980 0.9647);fill-opacity:1;"/>
<path d="M11.8232 15.6308C12.7026 15.6782 13.8565 16.0298 15.29 17.1621L15.6191 17.415C17.2767 18.6439 19.0634 19.3716 20.5918 19.2539C21.4232 19.1897 22.1806 18.8728 22.7695 18.2519C23.3311 17.6599 23.7019 16.8266 23.8721 15.7656C24.4577 16.9346 24.8174 18.1386 24.8174 19.3271C24.8172 23.5291 21.4109 26.9353 17.209 26.9355C13.0069 26.9355 9.5998 23.5292 9.59961 19.3271C9.59961 18.1429 9.96765 16.9366 10.5635 15.7646C10.9225 15.669 11.3402 15.6048 11.8232 15.6308Z" fill="#9ABBDB" style="fill:#9ABBDB;fill:color(display-p3 0.6056 0.7329 0.8603);fill-opacity:1;"/>
<path d="M18 10.8008C18.6 11.2008 20.4 13.2008 21 14.4008" stroke="#9ABBDB" style="stroke:#9ABBDB;stroke:color(display-p3 0.6039 0.7333 0.8588);stroke-opacity:1;" stroke-linecap="round"/>
<circle cx="22.1996" cy="16.1996" r="0.6" fill="#9ABBDB" style="fill:#9ABBDB;fill:color(display-p3 0.6039 0.7333 0.8588);fill-opacity:1;"/>
</svg>
