<svg width="23" height="29" viewBox="0 0 23 29" fill="none" xmlns="http://www.w3.org/2000/svg">
<path d="M0 5.8C0 2.59675 2.59675 0 5.8 0H16.5714C19.7747 0 22.3714 2.59675 22.3714 5.8V23.2C22.3714 26.4033 19.7747 29 16.5714 29H5.80001C2.59676 29 0 26.4033 0 23.2V5.8Z" fill="#DAEDFF" style="fill:#DAEDFF;fill:color(display-p3 0.8549 0.9294 1.0000);fill-opacity:1;"/>
<path d="M15.7432 24.4423C15.7432 23.5271 16.4851 22.7852 17.4003 22.7852H22.3717V23.1994C22.3717 26.4027 19.775 28.9994 16.5717 28.9994H15.7432V24.4423Z" fill="#75ACC5" style="fill:#75ACC5;fill:color(display-p3 0.4571 0.6764 0.7715);fill-opacity:1;"/>
<path d="M4.97168 6.62891H17.4003" stroke="#75ACC5" style="stroke:#75ACC5;stroke:color(display-p3 0.4571 0.6764 0.7715);stroke-opacity:1;" stroke-width="0.828571"/>
<path d="M4.97168 11.5996H17.4003" stroke="#75ACC5" style="stroke:#75ACC5;stroke:color(display-p3 0.4571 0.6764 0.7715);stroke-opacity:1;" stroke-width="0.828571"/>
<path d="M4.97168 16.5723H17.4003" stroke="#75ACC5" style="stroke:#75ACC5;stroke:color(display-p3 0.4571 0.6764 0.7715);stroke-opacity:1;" stroke-width="0.828571"/>
<path d="M4.97168 21.543H14.086" stroke="#75ACC5" style="stroke:#75ACC5;stroke:color(display-p3 0.4571 0.6764 0.7715);stroke-opacity:1;" stroke-width="0.828571"/>
</svg>
