<svg width="28" height="28" viewBox="0 0 28 28" fill="none" xmlns="http://www.w3.org/2000/svg">
<path d="M20.3682 3.84961C21.3711 3.84961 22.3328 4.24882 23.042 4.95801L23.1719 5.09375C23.7999 5.78742 24.1504 6.69169 24.1504 7.63184V23.3682C24.1504 24.3711 23.7512 25.3328 23.042 26.042C22.3328 26.7512 21.3711 27.1504 20.3682 27.1504H4.63184C3.69169 27.1504 2.78742 26.7999 2.09375 26.1719L1.95801 26.042C1.24882 25.3328 0.849609 24.3711 0.849609 23.3682V7.63184C0.849609 6.6289 1.24882 5.66719 1.95801 4.95801L2.09375 4.82812C2.78741 4.20014 3.69169 3.84961 4.63184 3.84961H20.3682ZM10.5361 21.3076L10.4297 21.4141L10.3242 21.3076L7.40332 18.3867L2.36328 23.4268C2.37821 24.0079 2.61327 24.5625 3.02539 24.9746L3.19238 25.125C3.59651 25.4561 4.1048 25.6396 4.63184 25.6396H20.3682C20.9705 25.6396 21.5487 25.4005 21.9746 24.9746L22.125 24.8076C22.4561 24.4035 22.6396 23.8952 22.6396 23.3682V21.5059L16.4824 15.3604L10.5361 21.3076ZM4.63184 5.36035C4.02952 5.36035 3.4513 5.59949 3.02539 6.02539C2.59949 6.4513 2.36035 7.02952 2.36035 7.63184V21.2988L7.29785 16.3506L7.40332 16.2441L10.4297 19.2705L16.377 13.3242L16.4824 13.2178L22.6396 19.375V7.63184C22.6396 7.1048 22.4561 6.59651 22.125 6.19238L21.9746 6.02539C21.5487 5.59949 20.9705 5.36035 20.3682 5.36035H4.63184ZM7.81543 7.48535C8.60049 7.5243 9.34586 7.85367 9.9043 8.41211L10.0127 8.52637C10.5401 9.109 10.834 9.86857 10.834 10.6582C10.8339 11.4479 10.5402 12.2074 10.0127 12.79L9.9043 12.9043C9.3087 13.4999 8.5005 13.8339 7.6582 13.834C6.86857 13.834 6.109 13.5401 5.52637 13.0127L5.41211 12.9043C4.81651 12.3087 4.48153 11.5005 4.48145 10.6582L4.48535 10.5C4.52439 9.71507 4.85376 8.97046 5.41211 8.41211L5.52637 8.30371C6.10904 7.77611 6.86843 7.48145 7.6582 7.48145L7.81543 7.48535ZM7.6582 8.99219C7.21641 8.99219 6.79286 9.16807 6.48047 9.48047C6.16807 9.79286 5.99219 10.2164 5.99219 10.6582C5.99227 11.0999 6.16815 11.5236 6.48047 11.8359L6.60254 11.9463C6.89894 12.1891 7.27169 12.3232 7.6582 12.3232C8.09989 12.3232 8.52361 12.1483 8.83594 11.8359L8.94629 11.7139C9.18922 11.4175 9.32317 11.0448 9.32324 10.6582C9.32324 10.2717 9.18909 9.89894 8.94629 9.60254L8.83594 9.48047C8.52361 9.16815 8.09989 8.99227 7.6582 8.99219Z" fill="#547CFF" stroke="#547CFF" style="fill:#547CFF;fill:color(display-p3 0.3307 0.4869 1.0000);fill-opacity:1;stroke:#547CFF;stroke:color(display-p3 0.3307 0.4869 1.0000);stroke-opacity:1;" stroke-width="0.3"/>
<path d="M9 1H22C24.7614 1 27 3.23858 27 6V19" stroke="#547CFF" style="stroke:#547CFF;stroke:color(display-p3 0.3307 0.4869 1.0000);stroke-opacity:1;" stroke-width="1.5" stroke-linecap="round"/>
</svg>
