<svg width="102" height="102" viewBox="0 0 102 102" fill="none" xmlns="http://www.w3.org/2000/svg">
<g clip-path="url(#clip0_1042_3367)">
<rect y="102" width="102" height="102" rx="12" transform="rotate(-90 0 102)" fill="#F1F1F1" style="fill:#F1F1F1;fill:color(display-p3 0.9438 0.9438 0.9438);fill-opacity:1;"/>
<path d="M40.0526 35H61.9474C63.2874 35 64.5726 35.5323 65.5201 36.4799C66.4677 37.4274 67 38.7126 67 40.0526V61.9474C67 63.2874 66.4677 64.5726 65.5201 65.5201C64.5726 66.4677 63.2874 67 61.9474 67H40.0526C38.7126 67 37.4274 66.4677 36.4799 65.5201C35.5323 64.5726 35 63.2874 35 61.9474V40.0526C35 38.7126 35.5323 37.4274 36.4799 36.4799C37.4274 35.5323 38.7126 35 40.0526 35ZM40.0526 36.6842C39.1593 36.6842 38.3025 37.0391 37.6708 37.6708C37.0391 38.3025 36.6842 39.1593 36.6842 40.0526V59.5726L43.9095 52.3305L48.12 56.5411L56.5411 48.12L65.3158 56.8947V40.0526C65.3158 39.1593 64.9609 38.3025 64.3292 37.6708C63.6975 37.0391 62.8407 36.6842 61.9474 36.6842H40.0526ZM48.12 58.9326L43.9095 54.7221L36.6842 61.9474C36.6842 62.8407 37.0391 63.6975 37.6708 64.3292C38.3025 64.9609 39.1593 65.3158 40.0526 65.3158H61.9474C62.8407 65.3158 63.6975 64.9609 64.3292 64.3292C64.9609 63.6975 65.3158 62.8407 65.3158 61.9474V59.2695L56.5411 50.5116L48.12 58.9326ZM44.2632 40.0526C45.3799 40.0526 46.4508 40.4962 47.2404 41.2859C48.0301 42.0755 48.4737 43.1465 48.4737 44.2632C48.4737 45.3799 48.0301 46.4508 47.2404 47.2404C46.4508 48.0301 45.3799 48.4737 44.2632 48.4737C43.1465 48.4737 42.0755 48.0301 41.2859 47.2404C40.4962 46.4508 40.0526 45.3799 40.0526 44.2632C40.0526 43.1465 40.4962 42.0755 41.2859 41.2859C42.0755 40.4962 43.1465 40.0526 44.2632 40.0526ZM44.2632 41.7368C43.5931 41.7368 42.9506 42.003 42.4768 42.4768C42.003 42.9506 41.7368 43.5931 41.7368 44.2632C41.7368 44.9332 42.003 45.5758 42.4768 46.0495C42.9506 46.5233 43.5931 46.7895 44.2632 46.7895C44.9332 46.7895 45.5758 46.5233 46.0495 46.0495C46.5233 45.5758 46.7895 44.9332 46.7895 44.2632C46.7895 43.5931 46.5233 42.9506 46.0495 42.4768C45.5758 42.003 44.9332 41.7368 44.2632 41.7368Z" fill="#8C8C8C" style="fill:#8C8C8C;fill:color(display-p3 0.5487 0.5487 0.5487);fill-opacity:1;"/>
</g>
<defs>
<clipPath id="clip0_1042_3367">
<rect y="102" width="102" height="102" rx="12" transform="rotate(-90 0 102)" fill="white" style="fill:white;fill-opacity:1;"/>
</clipPath>
</defs>
</svg>
