<svg width="52" height="52" viewBox="0 0 52 52" fill="none" xmlns="http://www.w3.org/2000/svg">
<circle cx="26" cy="26" r="26" fill="#80BDE1" fill-opacity="0.71" style="fill:#80BDE1;fill:color(display-p3 0.5019 0.7401 0.8813);fill-opacity:0.71;"/>
<path d="M26.6094 10.5527C27.0907 10.5527 27.4814 10.9434 27.4814 11.4248V24.9248H40.9814L41.0703 24.9297C41.5099 24.9742 41.8525 25.3455 41.8525 25.7969C41.8525 26.2482 41.5099 26.6195 41.0703 26.6641L40.9814 26.6689H27.4814V40.1689L27.4766 40.2578C27.432 40.6974 27.0607 41.04 26.6094 41.04C26.1581 41.0399 25.7867 40.6973 25.7422 40.2578L25.7373 40.1689V26.6689H12.2373C11.756 26.6688 11.3652 26.2782 11.3652 25.7969C11.3652 25.3156 11.756 24.9249 12.2373 24.9248H25.7373V11.4248C25.7373 10.9435 26.1281 10.5529 26.6094 10.5527Z" fill="#F4F4F4" style="fill:#F4F4F4;fill:color(display-p3 0.9553 0.9553 0.9553);fill-opacity:1;"/>
</svg>
