<svg width="36" height="36" viewBox="0 0 36 36" fill="none" xmlns="http://www.w3.org/2000/svg">
<circle cx="18" cy="18" r="17.65" fill="#88B0DA" fill-opacity="0.66" stroke="#CCCCCC" style="fill:#88B0DA;fill:color(display-p3 0.5317 0.6897 0.8551);fill-opacity:0.66;stroke:#CCCCCC;stroke:color(display-p3 0.7987 0.7987 0.7987);stroke-opacity:1;" stroke-width="0.7"/>
<path d="M18.4502 8.69922C17.8932 8.69922 17.3591 8.92047 16.9653 9.31429C16.5714 9.70812 16.3502 10.2423 16.3502 10.7992V20.2714L16.0754 20.497C15.4767 20.9869 15.0442 21.6499 14.8371 22.3952C14.63 23.1404 14.6584 23.9315 14.9185 24.66C15.1786 25.3885 15.6576 26.0188 16.2898 26.4644C16.9221 26.91 17.6767 27.1492 18.4502 27.1492C19.2237 27.1492 19.9783 26.91 20.6106 26.4644C21.2428 26.0188 21.7218 25.3885 21.9819 24.66C22.242 23.9315 22.2704 23.1404 22.0633 22.3952C21.8562 21.6499 21.4236 20.9869 20.825 20.497L20.5502 20.2714V10.7992C20.5502 10.5234 20.4959 10.2504 20.3903 9.99558C20.2848 9.7408 20.1301 9.5093 19.9351 9.31429C19.7401 9.11929 19.5086 8.96461 19.2538 8.85907C18.999 8.75354 18.726 8.69922 18.4502 8.69922ZM14.8502 10.7992C14.8502 9.84444 15.2295 8.92877 15.9046 8.25363C16.5797 7.5785 17.4954 7.19922 18.4502 7.19922C19.405 7.19922 20.3207 7.5785 20.9958 8.25363C21.6709 8.92877 22.0502 9.84444 22.0502 10.7992V19.5778C22.8157 20.299 23.347 21.2334 23.5751 22.26C23.8033 23.2867 23.7179 24.3582 23.33 25.3357C22.942 26.3132 22.2695 27.1517 21.3994 27.7425C20.5293 28.3333 19.5019 28.6491 18.4502 28.6491C17.3985 28.6491 16.3711 28.3333 15.501 27.7425C14.6309 27.1517 13.9584 26.3132 13.5704 25.3357C13.1825 24.3582 13.0971 23.2867 13.3253 22.26C13.5534 21.2334 14.0847 20.299 14.8502 19.5778V10.7992ZM20.8502 23.3992C20.8502 23.8415 20.7279 24.2751 20.497 24.6522C20.2661 25.0294 19.9355 25.3354 19.5416 25.5365C19.1477 25.7376 18.706 25.826 18.2651 25.7919C17.8241 25.7578 17.4012 25.6025 17.043 25.3432C16.6848 25.0839 16.4051 24.7307 16.235 24.3225C16.0648 23.9143 16.0107 23.467 16.0787 23.03C16.1467 22.5931 16.3341 22.1834 16.6203 21.8462C16.9064 21.509 17.2801 21.2574 17.7002 21.1192V14.5492C17.7002 14.3503 17.7792 14.1595 17.9199 14.0189C18.0605 13.8782 18.2513 13.7992 18.4502 13.7992C18.6491 13.7992 18.8399 13.8782 18.9805 14.0189C19.1212 14.1595 19.2002 14.3503 19.2002 14.5492V21.1192C19.6802 21.2771 20.0982 21.5826 20.3945 21.992C20.6908 22.4014 20.8502 22.8939 20.8502 23.3992Z" fill="#D4E5F6" style="fill:#D4E5F6;fill:color(display-p3 0.8314 0.8980 0.9647);fill-opacity:1;"/>
</svg>
