<svg width="44" height="44" viewBox="0 0 44 44" fill="none" xmlns="http://www.w3.org/2000/svg">
<circle cx="22" cy="22" r="21.5" fill="#BCCEBA" stroke="#F4F4F4" style="fill:#BCCEBA;fill:color(display-p3 0.7360 0.8082 0.7309);fill-opacity:1;stroke:#F4F4F4;stroke:color(display-p3 0.9553 0.9553 0.9553);stroke-opacity:1;"/>
<mask id="path-2-inside-1_1042_3161" fill="white">
<path d="M14.835 12.5124C19.1222 9.03079 25.4201 9.68387 28.9017 13.9711C32.1705 17.9963 31.7936 23.7929 28.1872 27.368L32.6321 32.8413C32.9802 33.27 32.9149 33.8998 32.4862 34.248C32.0575 34.5961 31.4277 34.5308 31.0795 34.1021L26.6347 28.6288C22.3957 31.4248 16.6451 30.6043 13.3763 26.5791C9.89467 22.2919 10.5477 15.994 14.835 12.5124ZM16.0884 14.0558C12.6535 16.8453 12.1304 21.8908 14.9197 25.3257C17.7091 28.7606 22.7547 29.2838 26.1896 26.4944C29.6244 23.7049 30.1477 18.6594 27.3582 15.2245C24.5688 11.7897 19.5232 11.2664 16.0884 14.0558Z"/>
</mask>
<path d="M14.835 12.5124C19.1222 9.03079 25.4201 9.68387 28.9017 13.9711C32.1705 17.9963 31.7936 23.7929 28.1872 27.368L32.6321 32.8413C32.9802 33.27 32.9149 33.8998 32.4862 34.248C32.0575 34.5961 31.4277 34.5308 31.0795 34.1021L26.6347 28.6288C22.3957 31.4248 16.6451 30.6043 13.3763 26.5791C9.89467 22.2919 10.5477 15.994 14.835 12.5124ZM16.0884 14.0558C12.6535 16.8453 12.1304 21.8908 14.9197 25.3257C17.7091 28.7606 22.7547 29.2838 26.1896 26.4944C29.6244 23.7049 30.1477 18.6594 27.3582 15.2245C24.5688 11.7897 19.5232 11.2664 16.0884 14.0558Z" fill="#BEBEBE" style="fill:#BEBEBE;fill:color(display-p3 0.7442 0.7442 0.7442);fill-opacity:1;"/>
<path d="M28.1872 27.368L27.4832 26.6578L26.8401 27.2954L27.411 27.9984L28.1872 27.368ZM32.6321 32.8413L33.4083 32.2109L32.6321 32.8413ZM31.0795 34.1021L30.3032 34.7325L31.0795 34.1021ZM26.6347 28.6288L27.411 27.9984L26.8401 27.2954L26.0841 27.794L26.6347 28.6288ZM16.0884 14.0558L15.458 13.2796L15.458 13.2796L16.0884 14.0558ZM14.9197 25.3257L14.1434 25.9561L14.1434 25.9561L14.9197 25.3257ZM26.1896 26.4944L26.82 27.2706L26.82 27.2706L26.1896 26.4944ZM27.3582 15.2245L28.1345 14.5941L28.1345 14.5941L27.3582 15.2245ZM14.835 12.5124L15.4654 13.2887C19.3239 10.1552 24.992 10.743 28.1254 14.6015L28.9017 13.9711L29.6779 13.3407C25.8482 8.62475 18.9205 7.90636 14.2046 11.7361L14.835 12.5124ZM28.9017 13.9711L28.1254 14.6015C31.0668 18.2235 30.7283 23.4408 27.4832 26.6578L28.1872 27.368L28.8913 28.0782C32.8589 24.1449 33.2741 17.769 29.6779 13.3407L28.9017 13.9711ZM28.1872 27.368L27.411 27.9984L31.8558 33.4717L32.6321 32.8413L33.4083 32.2109L28.9635 26.7376L28.1872 27.368ZM32.6321 32.8413L31.8558 33.4717L32.4862 34.248L33.1166 35.0242C33.974 34.3279 34.1046 33.0683 33.4083 32.2109L32.6321 32.8413ZM32.4862 34.248L31.8558 33.4717L31.0795 34.1021L30.3032 34.7325C30.9996 35.5899 32.2591 35.7206 33.1166 35.0242L32.4862 34.248ZM31.0795 34.1021L31.8558 33.4717L27.411 27.9984L26.6347 28.6288L25.8584 29.2592L30.3032 34.7325L31.0795 34.1021ZM26.6347 28.6288L26.0841 27.794C22.2697 30.31 17.094 29.5708 14.1525 25.9487L13.3763 26.5791L12.6 27.2095C16.1962 31.6378 22.5217 32.5397 27.1853 29.4635L26.6347 28.6288ZM13.3763 26.5791L14.1525 25.9487C11.0191 22.0902 11.6069 16.4221 15.4654 13.2887L14.835 12.5124L14.2046 11.7361C9.48862 15.5659 8.77023 22.4936 12.6 27.2095L13.3763 26.5791ZM16.0884 14.0558L15.458 13.2796C11.5944 16.4172 11.0059 22.0925 14.1434 25.9561L14.9197 25.3257L15.696 24.6953C13.2548 21.6891 13.7127 17.2734 16.7188 14.8321L16.0884 14.0558ZM14.9197 25.3257L14.1434 25.9561C17.281 29.8197 22.9564 30.4082 26.82 27.2706L26.1896 26.4944L25.5592 25.7181C22.553 28.1593 18.1372 27.7014 15.696 24.6953L14.9197 25.3257ZM26.1896 26.4944L26.82 27.2706C30.6836 24.133 31.2721 18.4577 28.1345 14.5941L27.3582 15.2245L26.582 15.8549C29.0232 18.8611 28.5653 23.2768 25.5592 25.7181L26.1896 26.4944ZM27.3582 15.2245L28.1345 14.5941C24.9969 10.7306 19.3216 10.142 15.458 13.2796L16.0884 14.0558L16.7188 14.8321C19.7249 12.3909 24.1407 12.8488 26.582 15.8549L27.3582 15.2245Z" fill="#F4F4F4" style="fill:#F4F4F4;fill:color(display-p3 0.9553 0.9553 0.9553);fill-opacity:1;" mask="url(#path-2-inside-1_1042_3161)"/>
<path d="M22.0449 13.8203C23.4096 13.9831 25.9295 15.0409 27.0757 17.7179" stroke="#F4F4F4" style="stroke:#F4F4F4;stroke:color(display-p3 0.9553 0.9553 0.9553);stroke-opacity:1;" stroke-width="1.5" stroke-linecap="round"/>
</svg>
