<svg width="56" height="56" viewBox="0 0 56 56" fill="none" xmlns="http://www.w3.org/2000/svg">
<rect width="56" height="56" rx="28" fill="#FAFAFA" style="fill:#FAFAFA;fill:color(display-p3 0.9798 0.9798 0.9798);fill-opacity:1;"/>
<path d="M16.0214 38.0979L16.8098 32.6988C16.8578 32.3459 17.0189 32.0177 17.2709 31.7648L32.5466 16.4871C32.7443 16.2867 32.9905 16.1407 33.2613 16.0632C33.5321 15.9857 33.8183 15.9794 34.0922 16.0447C35.4946 16.4319 36.7657 17.1913 37.7706 18.2422C38.8199 19.2527 39.575 20.5288 39.9552 21.9342C40.0207 22.2078 40.0143 22.4937 39.9367 22.7641C39.8591 23.0346 39.7129 23.2804 39.5123 23.4779L24.2197 38.7362C23.9661 38.9872 23.6372 39.1485 23.2832 39.1954L17.8787 39.9828C17.6234 40.02 17.3629 39.9966 17.1184 39.9145C16.8739 39.8323 16.6521 39.6938 16.4712 39.51C16.2903 39.3263 16.1553 39.1026 16.0772 38.857C15.999 38.6115 15.9799 38.351 16.0214 38.0966M29.6567 19.3929L36.6224 26.35" stroke="#8D8D8D" style="stroke:#8D8D8D;stroke:color(display-p3 0.5517 0.5517 0.5517);stroke-opacity:1;" stroke-width="1.5" stroke-linecap="round" stroke-linejoin="round"/>
</svg>
